<svg width="1600" height="1600" viewBox="0 0 1600 1600" fill="none" xmlns="http://www.w3.org/2000/svg">
<rect width="1600" height="1600" fill="#FDFDEB"/>
<path d="M640.392 975.001C611.436 974.936 582.665 970.389 555.102 961.521C494.642 942.211 456.532 908.721 454.932 907.301C449.374 902.375 446.001 895.443 445.555 888.029C445.108 880.616 447.625 873.329 452.552 867.771C457.478 862.214 464.41 858.841 471.824 858.394C479.237 857.948 486.524 860.465 492.082 865.391C492.532 865.781 524.482 893.391 574.142 908.811C638.952 928.901 702.972 919.711 764.432 881.471C770.727 877.798 778.207 876.724 785.281 878.478C792.356 880.232 798.468 884.675 802.318 890.864C806.168 897.053 807.453 904.499 805.9 911.621C804.348 918.742 800.079 924.977 794.002 929.001C738.502 963.501 685.822 975.001 640.392 975.001Z" fill="black"/>
<path d="M488.998 688.709C451.058 689.599 438.298 719.799 434.168 743.859C386.628 701.379 387.678 662.359 374.828 623.149C366.078 596.479 324.528 572.719 309.878 622.009C296.068 668.319 356.998 750.789 356.998 750.789C314.738 726.569 284.728 678.149 266.938 665.339C249.808 652.999 218.558 664.199 224.648 701.999C232.238 749.119 322.188 792.099 322.188 792.099L323.088 798.469C282.388 774.319 247.848 761.469 226.608 765.169C198.688 770.029 189.508 806.559 225.898 824.639C262.288 842.719 318.368 847.579 318.368 847.579C339.028 893.839 373.058 904.359 403.488 898.579C410.578 916.839 435.758 943.129 484.358 889.359C528.968 839.999 499.358 814.199 472.358 817.199C473.658 805.959 474.048 795.419 474.838 787.109C477.308 761.179 500.678 746.519 510.318 733.859C522.998 717.279 529.998 687.749 488.998 688.709Z" fill="white"/>
<path d="M401.43 888.31C400.27 900.52 424.61 955.46 484.43 889.31C536.43 831.82 487.62 806.31 459.75 821" fill="white"/>
<path d="M394.999 890.62C394.289 899.67 399.799 909.85 405.719 916.27C415.959 927.39 430.719 929.36 444.629 924.53C455.519 920.75 465.289 913.81 473.839 906.22C485.439 895.93 496.379 884.1 504.329 870.72C512.989 856.17 519.559 834.89 505.819 821.11C493.409 808.68 473.389 808.8 458.539 816.4C455.969 817.71 452.409 821.4 453.349 824.65C454.349 828.07 458.709 826.78 460.909 825.65C469.789 821.11 483.339 821.97 492.059 828.65C503.999 837.84 501.879 853.71 495.669 865.65C489.849 876.84 481.299 886.65 472.319 895.35C465.259 902.22 457.219 909 448.009 912.79C437.709 917.02 426.609 915.99 418.489 907.96C415.011 904.503 412.237 900.404 410.319 895.89C409.468 893.885 408.798 891.806 408.319 889.68C408.142 888.878 408.005 888.067 407.909 887.25C407.759 885.99 407.909 888.34 407.909 887.16C407.879 886.761 407.879 886.36 407.909 885.96C408.499 878.39 395.419 884.96 394.989 890.58L394.999 890.62Z" fill="black"/>
<path d="M322.21 792.099C322.21 792.099 232.21 749.099 224.67 701.999C218.58 664.199 249.83 652.999 266.96 665.339C284.75 678.149 314.76 726.569 357.02 750.789C357.02 750.789 296.07 668.319 309.84 622.009C324.49 572.719 366.04 596.479 374.79 623.149C387.79 662.899 386.56 702.449 436.11 745.609" fill="white"/>
<path d="M322.78 784.79C311.855 779.458 301.262 773.471 291.06 766.86C272.25 754.86 253.2 740.99 239.72 722.96C233.81 715.05 229.29 706.4 228.53 696.43C227.77 686.46 231.25 676.19 240.44 671.05C244.016 669.054 248.044 668.005 252.14 668.005C256.236 668.005 260.264 669.054 263.84 671.05C271.74 675.65 277.98 684.05 283.84 690.8C305.26 715.37 326.73 740.87 355.28 757.45C362.11 761.45 362.28 748.7 359.69 745.24C351.4 733.866 343.848 721.971 337.08 709.63C325.4 688.56 313.53 664.7 312.34 640.2C311.34 620.03 325.4 593.42 348.82 602.99C371.49 612.25 374.26 637.84 379.55 658.69C383.55 674.42 388.27 690.08 395.82 704.52C405.44 722.9 418.82 738.61 434.37 752.27C437.04 754.62 439.55 751.54 440.27 749.05C441.2 745.79 440.4 741.29 437.76 738.97C423.17 726.13 410.34 711.3 401.64 693.81C394.95 680.38 390.87 666.04 387.23 651.54C383.94 638.4 381.63 623.75 375.06 611.76C369.69 601.97 361.4 593.52 351.14 588.89C341.7 584.63 330.58 584.81 322.14 591.24C311.14 599.64 305.43 614.54 303.74 627.91C300.32 654.97 312.19 683.26 324.16 706.85C332.815 724.155 342.886 740.715 354.27 756.36L358.68 744.15C331.12 728.15 310.31 703.86 289.68 680.15C282.94 672.41 276.03 663.35 267.24 657.78C263.147 655.207 258.492 653.661 253.672 653.275C248.853 652.888 244.011 653.672 239.56 655.56C215 665.76 216 700.63 226 720.71C237.1 742.93 257.73 759.77 277.79 773.62C291.71 783.349 306.372 791.973 321.64 799.41C327.37 802.15 328.07 787.33 322.77 784.79H322.78Z" fill="black"/>
<path d="M432.448 773.308C432.448 773.308 425.638 690.198 488.958 688.708C529.958 687.708 522.958 717.278 510.388 733.838C500.748 746.498 477.388 761.158 474.908 787.088C472.428 813.018 473.908 860.478 439.318 883.648C404.728 906.818 347.908 913.648 318.388 847.578C318.388 847.578 262.318 842.718 225.918 824.638C189.518 806.558 198.708 770.028 226.628 765.168C247.868 761.468 282.408 774.318 323.108 798.468" fill="white"/>
<path d="M437.999 769.31C437.999 768.76 437.879 767.01 437.999 769.18C437.999 767.83 437.909 766.49 437.889 765.18C437.889 760.75 438.029 756.31 438.419 751.9C439.479 739.78 442.089 727.76 447.899 717.12C450.562 712.164 454.21 707.805 458.619 704.31C464.584 699.832 471.603 696.97 478.999 696C491.409 694.17 515.089 694.89 514.449 712.58C513.939 726.66 502.569 735.58 493.029 745.41C485.839 752.81 479.129 760.89 474.669 770.26C470.209 779.63 469.179 789.07 468.479 799.11C467.229 817.18 466.089 836 458.809 852.85C451.529 869.7 438.219 880.35 421.559 887.14C405.059 893.86 386.499 895.61 369.459 889.83C347.379 882.34 332.769 862.83 323.459 842.35C323.25 841.986 322.962 841.674 322.615 841.437C322.269 841.199 321.874 841.043 321.459 840.98C310.749 840.04 300.059 838.36 289.459 836.4C269.289 832.66 248.459 827.77 230.079 818.5C217.519 812.18 201.939 797.57 209.189 782.01C214.889 769.8 232.899 770.31 244.869 772.6C271.189 777.6 295.869 791.14 318.669 804.6C324.039 807.77 332.469 795.38 327.279 792.31C308.589 781.31 289.149 771.02 268.539 764.04C255.099 759.5 239.329 755.47 225.209 759.25C211.809 762.83 200.679 773.6 197.289 787.18C193.779 801.26 199.729 814.81 210.659 823.85C224.229 835.08 243.659 840.34 260.449 844.64C275.161 848.365 290.09 851.177 305.149 853.06C307.809 853.4 312.309 852.99 314.749 854.15C314.819 854.15 314.959 854.15 315.029 854.15C312.579 852.6 314.539 856.08 314.489 855.76C314.789 857.76 316.739 860.3 317.709 862.09C319.91 866.159 322.369 870.084 325.069 873.84C334.069 886.26 345.689 896.31 360.069 901.92C384.959 911.66 413.069 905.28 435.339 892.02C465.069 874.35 475.429 842.02 478.539 809.31C479.859 795.41 478.649 780.2 486.179 767.86C493.859 755.29 506.469 746.95 514.959 735.06C521.549 725.83 526.959 713.75 525.489 702.16C523.819 688.92 511.579 683.27 499.489 682.27C485.199 681.08 470.639 683.87 458.669 692C448.669 698.81 441.049 709 436.099 720C428.719 736.34 425.959 755 426.529 772.81C426.579 774.32 426.639 775.81 426.759 777.33C427.049 780.93 431.359 779.99 433.339 778.65C434.837 777.618 436.045 776.218 436.845 774.584C437.646 772.949 438.012 771.137 437.909 769.32L437.999 769.31Z" fill="black"/>
<path d="M325.419 817.509C325.419 817.509 310.969 757.389 384.189 742.219Z" fill="white"/>
<path d="M330.618 813C330.508 812.53 330.428 812.06 330.338 811.59C330.248 811.12 330.018 809.54 330.148 810.49C330.278 811.44 329.988 809.01 329.948 808.49C329.758 806.49 329.668 804.39 329.668 802.34C329.644 800.121 329.765 797.903 330.028 795.7C331.838 782.33 337.028 771.98 348.528 763.11C358.468 755.47 370.798 751.46 382.908 748.88C388.388 747.71 392.958 733.79 385.458 735.39C362.788 740.22 341.298 751.07 328.898 771.39C321.529 783.742 318.067 798.034 318.968 812.39C319.106 815.603 319.521 818.798 320.208 821.94C321.038 825.41 324.888 824.31 326.888 822.69C329.538 820.54 331.428 816.41 330.618 813V813Z" fill="black"/>
<path d="M592 1216.77C592 1216.77 593.92 1223.16 606.11 1241.22C618.3 1259.28 658 1334.22 814.02 1367.86C814.02 1367.86 813.36 1281.86 733.02 1236.25C652.68 1190.64 592 1216.77 592 1216.77Z" fill="#FCFBCF"/>
<path d="M586.76 1221.24C590.39 1232.89 598.98 1243.12 605.58 1253.24C611.071 1261.76 617.139 1269.9 623.74 1277.59C648.53 1306.21 680.64 1327.67 714.85 1343.45C745.64 1357.65 778.32 1367.51 811.41 1374.7C815.93 1375.7 819.41 1368.27 819.41 1364.84C819.13 1335.13 807.22 1303.84 790.84 1279.5C773.75 1254.16 749.64 1235.27 722.21 1222.16C694.95 1209.16 664.71 1201.44 634.37 1202.55C620.16 1203.06 605.08 1204.91 591.87 1210.55C586.55 1212.83 583.87 1226.43 592.08 1222.92C590.2 1223.73 591.89 1223 593.08 1222.59C595.23 1221.83 597.41 1221.19 599.6 1220.59C607.092 1218.58 614.749 1217.24 622.48 1216.59C650.22 1214.3 678.35 1219.69 703.97 1230.28C732.31 1241.99 757.97 1259.28 776.62 1283.84C789.316 1300.77 798.564 1320.03 803.84 1340.52C806.6 1351.06 808.53 1360.24 808.63 1370.78L816.63 1360.91C765.63 1349.83 714.89 1332.11 672.18 1301.48C650.386 1286.03 631.59 1266.73 616.71 1244.54C614.71 1241.54 612.79 1238.47 610.79 1235.47C606.07 1228.34 599.59 1219.79 597.23 1212.2C594.91 1205 585.09 1215.86 586.76 1221.24Z" fill="#392000"/>
<path d="M814.001 1364.86C994.071 1248.59 1076.17 1064.1 1091 1013.86C1124 902.159 1166.51 664.929 1034.32 406.559C919.211 181.559 713.212 200.559 624.662 196.859C552.262 193.789 506.741 167.859 495.571 147.089C469.511 98.589 426.661 124.779 415.271 157.419C408.811 175.919 398.572 226.509 476.532 218.189C678.212 231.599 749.382 774.109 742.792 871.359C736.202 968.609 652.131 1132.71 591.791 1191.73C591.791 1191.73 568.841 1204.4 591.951 1213.73C591.951 1213.73 736.031 1194.52 806.951 1351.5L814.001 1364.86Z" fill="#F8F58F"/>
<path d="M816.061 1373.46C882.711 1330.27 940.831 1275.14 989.391 1212.46C1025 1166.46 1055.9 1116.26 1079.88 1063.23C1096.82 1025.76 1107.41 986.399 1115.58 946.159C1128.92 880.71 1134.46 813.912 1132.1 747.159C1128.99 660.758 1112.21 575.395 1082.37 494.249C1053.71 416.529 1015.66 339.179 953.261 282.909C909.041 243.039 855.021 216.209 797.261 202.509C751.721 191.709 705.261 188.839 658.651 188.029C631.251 187.559 603.951 187.029 577.041 181.029C560.411 177.349 543.921 171.749 528.941 163.579C519.851 158.579 509.171 151.199 504.061 143.369C495.311 129.989 487.141 116.139 470.451 112.009C456.041 108.439 442.011 113.889 430.741 122.849C413.281 136.719 403.621 159.599 402.991 181.649C402.351 204.459 415.641 221.489 437.851 226.649C445.83 228.395 453.999 229.114 462.161 228.789C469.161 228.589 475.621 227.789 482.531 228.789C491.012 229.933 499.316 232.133 507.251 235.339C543.811 249.679 571.821 280.679 593.551 313.159C621.551 355.009 641.801 401.939 658.481 449.289C676.801 501.289 690.941 554.799 702.481 608.709C713.061 657.989 721.441 707.686 727.621 757.799C731.621 790.609 735.331 826.069 735.221 860.109C735.151 881.409 731.401 902.359 726.221 922.969C717.411 957.649 704.391 991.239 689.621 1023.79C674.657 1057.02 657.343 1089.15 637.811 1119.92C629.181 1133.43 620.061 1146.65 610.201 1159.3C606.201 1164.49 601.991 1169.61 597.591 1174.5C595.591 1176.73 593.554 1178.92 591.481 1181.05C590.551 1182.05 589.631 1182.97 588.671 1183.89C590.201 1182.41 589.281 1183.46 588.671 1183.95C583.611 1187.85 578.771 1191.21 575.911 1197.21C572.511 1204.35 573.201 1212.61 579.341 1218C582.941 1221.17 587.701 1223.82 592.521 1223.29C589.681 1223.6 592.261 1223.29 593.901 1223.2C606.459 1222.38 619.067 1222.85 631.531 1224.59C681.641 1231.16 727.531 1256.47 760.621 1294.85C780.531 1317.92 793.011 1344.85 807.151 1371.44C812.541 1381.59 825.361 1366.91 820.941 1358.58C808.151 1334.49 796.761 1310.28 779.941 1288.58C763.546 1267.32 743.443 1249.2 720.601 1235.1C688.762 1215.68 652.434 1204.85 615.161 1203.65C607.41 1203.31 599.645 1203.59 591.941 1204.51L595.941 1204.75C594.091 1203.95 592.381 1202.66 590.591 1201.89C588.801 1201.12 590.151 1199.26 589.591 1201.98C589.591 1201.8 588.961 1205.72 589.221 1203.98C589.401 1202.8 589.381 1204.24 589.071 1204.29C589.651 1204.2 589.521 1203.66 590.661 1202.7C591.483 1201.96 592.385 1201.31 593.351 1200.77C595.082 1199.57 596.687 1198.2 598.141 1196.68C606.712 1187.88 614.746 1178.57 622.201 1168.81C640.201 1145.52 655.951 1120.43 670.351 1094.76C701.681 1038.9 728.771 978.909 743.401 916.339C750.781 884.759 751.941 854.139 749.971 822.029C747.731 785.519 743.411 749.119 738.141 712.939C731.548 667.606 723.151 622.606 712.951 577.939C702.111 530.669 689.171 483.809 672.951 438.099C657.801 395.429 640.021 353.279 616.411 314.539C597.191 283.009 573.651 252.389 542.641 231.659C528.851 222.429 513.991 215.429 497.791 211.659C493.788 210.705 489.74 209.954 485.661 209.409C479.661 208.619 473.981 209.249 467.921 209.499C455.741 209.999 442.481 209.429 431.651 203.199C428.726 201.548 426.168 199.317 424.134 196.643C422.1 193.969 420.632 190.909 419.821 187.649C418.821 183.549 418.821 183.079 418.821 178.359C418.821 177.469 418.891 176.579 418.921 175.679C418.951 174.779 419.121 173.459 418.921 175.159C419.121 173.339 419.401 171.529 419.741 169.729C420.021 168.269 420.341 166.819 420.741 165.369C420.921 164.639 421.121 163.919 421.321 163.189C421.441 162.729 422.231 160.109 421.681 161.869C421.131 163.629 421.841 161.379 421.971 161.039C422.321 160.039 422.661 159.039 423.051 158.109C424.086 155.471 425.354 152.931 426.841 150.519C432.541 141.449 441.071 133.519 451.701 130.949C478.021 124.539 485.911 155.689 501.861 169.199C523.471 187.499 552.291 196.509 579.621 201.759C620.851 209.699 663.431 206.549 705.171 209.199C749.681 212.019 793.981 219.349 835.881 235.029C887.082 254.205 932.819 285.606 969.111 326.499C991.661 351.849 1010.4 380.389 1026.02 410.499C1045.88 448.736 1062.66 488.495 1076.2 529.399C1099.67 600.284 1113.1 674.103 1116.1 748.709C1118.44 808.019 1114.36 867.407 1103.93 925.839C1099.89 948.506 1094.92 970.966 1089.01 993.219C1087.74 997.973 1086.44 1002.71 1085.09 1007.42C1084.47 1009.57 1083.86 1011.72 1083.21 1013.87C1082.7 1015.56 1082.09 1017.4 1082.76 1015.39C1080.76 1021.45 1078.6 1027.45 1076.28 1033.39C1060.58 1073.53 1039.94 1111.49 1016.68 1147.6C982.401 1200.81 941.681 1249.86 894.831 1292.47C868.977 1316.02 841.245 1337.43 811.911 1356.47C807.791 1359.14 805.041 1364.47 806.311 1369.47C807.441 1373.58 812.001 1376.06 816.061 1373.46Z" fill="#392000"/>
<path d="M867.999 977.829C852.999 1046.83 819.099 1110.18 777.419 1166.64C765.786 1182.38 753.569 1197.66 740.769 1212.47C738.559 1215.04 738.449 1219.64 739.429 1222.73C740.109 1224.9 742.289 1228.07 744.559 1225.42C790.979 1171.42 831.449 1111.21 856.889 1044.37C864.218 1025.17 870.094 1005.45 874.469 985.369C875.139 982.309 875.599 977.589 873.129 975.109C870.849 972.829 868.539 975.299 867.999 977.799V977.829Z" fill="#392000"/>
<path d="M644.911 262.211C647.519 262.997 650.085 263.915 652.601 264.961C650.231 264.031 654.261 265.671 655.021 265.961C656.721 266.714 658.387 267.494 660.021 268.301C661.654 269.107 663.361 269.964 665.141 270.871C666.121 271.377 667.091 271.897 668.051 272.431C668.661 272.771 671.051 274.091 670.411 273.741C692.841 286.681 712.511 304.191 728.761 324.311C741.966 340.811 753.143 358.836 762.051 378.001C763.511 381.101 767.401 383.221 770.691 383.711C772.831 384.031 776.861 383.471 775.351 380.281C750.941 328.531 710.161 281.391 656.641 258.591C652.696 256.803 648.641 255.27 644.501 254.001C642.401 253.411 637.971 252.561 637.771 255.851C637.581 258.851 642.641 261.611 644.911 262.241V262.211Z" fill="#392000"/>
<path d="M463.871 218.59C465.151 218.68 480.531 213.78 490.201 190.59Z" fill="#F8F58F"/>
<path d="M463.872 228.59C467.982 228.52 472.592 225.06 475.592 222.66C483.812 216.08 489.592 207.27 493.742 197.66C495.562 193.43 496.012 187.66 493.742 183.52C491.932 180.19 488.372 179.57 486.672 183.52C483.342 191.24 478.902 198.7 472.192 203.96C470.313 205.457 468.266 206.729 466.092 207.75C465.375 208.086 464.64 208.383 463.892 208.64C463.092 208.93 464.972 208.57 463.892 208.64C456.892 208.77 456.952 228.76 463.892 228.64L463.872 228.59Z" fill="#392000"/>
<path d="M460.161 120.36C460.161 120.36 479.061 134.66 467.161 167.05C455.261 199.44 436.961 208.25 425.881 211.13C414.801 214.01 403.321 180.13 417.701 151.45C432.081 122.77 455.541 119.94 460.161 120.36Z" fill="#392000"/>
<path d="M724.211 1299.52C724.211 1299.52 747.981 1328.94 746.011 1314.23C744.041 1299.52 724.211 1299.52 724.211 1299.52Z" fill="#392000" stroke="#F8F58F" stroke-miterlimit="10"/>
<path d="M672.358 1271C672.358 1271 654.358 1237.72 653.618 1252.54C652.878 1267.36 672.358 1271 672.358 1271Z" fill="#392000" stroke="#F8F58F" stroke-miterlimit="10"/>
<path d="M704.809 1277.57C704.809 1277.57 724.329 1263.33 711.089 1264.57C697.849 1265.81 704.809 1277.57 704.809 1277.57Z" fill="#392000" stroke="#F8F58F" stroke-miterlimit="10"/>
<path d="M703.002 1295.42C703.002 1295.42 682.112 1307.56 688.602 1295.95C695.092 1284.34 703.002 1295.42 703.002 1295.42Z" fill="#392000" stroke="#F8F58F" stroke-miterlimit="10"/>
<path d="M1166.17 1192.82C1159.54 1192.82 1153.12 1190.47 1148.06 1186.18C1143 1181.9 1139.62 1175.95 1138.54 1169.41C1137.45 1162.87 1138.72 1156.15 1142.13 1150.46C1145.53 1144.76 1150.84 1140.46 1157.12 1138.32C1157.82 1138.08 1229.5 1113.23 1268.28 1078.86C1278.62 1069.76 1287.94 1059.55 1296.07 1048.42C1267.99 1044.29 1229.67 1037.24 1194.72 1026C1135.9 1007.09 1080.18 966.301 1077.83 964.581C1071.85 960.174 1067.87 953.574 1066.76 946.231C1065.65 938.888 1067.5 931.404 1071.9 925.426C1076.31 919.448 1082.91 915.466 1090.25 914.354C1097.6 913.243 1105.08 915.095 1111.06 919.501C1112.18 920.321 1162.22 956.731 1211.86 972.691C1269.57 991.251 1341 997.511 1341.72 997.571C1345.76 997.916 1349.67 999.132 1353.19 1001.14C1356.71 1003.14 1359.75 1005.89 1362.11 1009.18C1364.47 1012.48 1366.08 1016.24 1366.84 1020.22C1367.6 1024.2 1367.49 1028.3 1366.51 1032.23C1365.39 1036.75 1354.12 1077.63 1305.42 1120.77C1258.17 1162.65 1178.6 1190.15 1175.24 1191.3C1172.32 1192.31 1169.26 1192.82 1166.17 1192.82V1192.82Z" fill="black"/>
<path d="M723.21 901.238C723.21 901.238 692.8 902.318 679.38 882.598C671.2 870.598 643.2 849.598 617.56 892.278C588.18 941.198 601.56 1054.02 670.38 1028.8C739.2 1003.58 723.21 901.238 723.21 901.238Z" fill="#FCC9C9"/>
<path d="M723.211 893.741C708.101 894.221 690.922 889.161 681.652 876.661C673.222 865.291 659.582 856.441 644.932 860.111C624.792 865.111 612.612 887.601 606.472 905.881C600.682 923.081 598.552 941.781 599.272 959.881C600.432 989.051 609.802 1032.27 643.792 1039.17C660.702 1042.6 679.472 1034.68 692.412 1024.17C706.522 1012.69 715.632 996.701 721.112 979.531C729.042 954.721 730.662 926.531 727.022 900.711C726.962 900.231 726.901 899.711 726.821 899.271C726.491 897.111 725.211 892.791 722.211 894.031C719.381 895.201 719.211 900.921 719.591 903.261C719.851 904.951 720.041 906.661 720.211 908.371C720.381 910.081 720.532 911.761 720.662 913.461C720.802 915.331 720.562 911.721 720.662 913.681C720.662 914.271 720.732 914.861 720.772 915.451C720.852 916.961 720.911 918.451 720.961 919.961C721.391 933.851 720.712 946.411 717.792 960.131C711.142 991.301 689.342 1022.37 654.792 1024.83C623.332 1027.08 610.262 994.231 607.352 968.181C605.593 952.686 606.629 937 610.412 921.871C614.762 904.801 623.902 884.871 640.542 876.871C644.239 875.108 648.3 874.241 652.395 874.34C656.49 874.44 660.504 875.502 664.112 877.441C670.622 880.781 674.521 885.651 678.961 891.201C689.041 903.801 707.422 909.291 723.152 908.791C728.472 908.581 728.381 893.581 723.211 893.741Z" fill="#7A2525"/>
<path d="M1099.7 1169.09C1170.7 1112.09 1146.7 880.091 1127.2 863.931C1124.63 861.801 1120.34 863.931 1120.34 863.931C1119.49 870.261 1118.51 880.281 1118.51 880.281C848.509 1053.42 740.959 883.421 740.959 883.421C669.199 920.591 703.449 1010.8 703.449 1010.8C617.199 1050.59 619.199 1124.59 613.199 1130.59C607.199 1136.59 603.699 1146.09 609.199 1153.59C612.799 1158.5 616.259 1159.15 620.979 1157.59C625.699 1156.03 682.509 1141.23 753.199 1153.59C823.889 1165.95 818.199 1200.31 926.009 1278.51C925.999 1278.51 1066.09 1269.18 1099.7 1169.09Z" fill="#FCC9C9"/>
<path d="M1100.7 1176.32C1118.78 1161.63 1129.02 1139.63 1135.9 1117.84C1144.49 1090.59 1148.2 1061.91 1150.02 1033.48C1151.77 1004.83 1151.49 976.091 1149.18 947.48C1147.47 925.35 1144.85 903.01 1139.4 881.48C1137.64 874.55 1135.66 867.16 1131.87 861.02C1129.35 856.92 1125.59 854.02 1120.45 856.25C1116.19 858.06 1116.45 863.84 1116 867.83C1115.6 871.297 1115.23 874.773 1114.89 878.26L1117.51 873.03C1046.08 918.7 960.511 958.66 873.451 949.2C830.791 944.56 789.321 926.41 759.041 896.13C754.752 891.867 750.725 887.348 746.981 882.6C745.981 881.27 744.981 879.91 743.981 878.54C743.521 877.91 742.151 875.75 743.641 878.09C742.841 876.83 741.711 875.26 739.991 876.16C715.081 889.28 699.141 911.69 693.741 939.16C689.671 959.83 691.491 981.54 696.481 1001.88C697.472 1006.19 698.728 1010.43 700.241 1014.58L702.481 1003.58C672.391 1017.58 646.481 1039.25 630.391 1068.58C621.091 1085.47 616.871 1103.35 612.011 1121.76C611.761 1122.76 611.481 1123.67 611.161 1124.62C611.061 1124.95 612.091 1123.62 611.231 1124.36C610.371 1125.1 612.141 1123.23 611.331 1124.16C604.651 1131.83 600.981 1141.66 603.511 1151.87C605.511 1160 611.751 1167.63 620.741 1165.26C623.591 1164.51 624.741 1164.11 628.021 1163.37C660.451 1155.99 694.641 1154.65 727.671 1157.73C754.001 1160.19 780.671 1164.83 802.841 1180.2C821.611 1193.2 836.941 1211.08 853.471 1226.71C866.297 1238.83 879.581 1250.44 893.321 1261.55C902.141 1268.67 911.121 1275.59 920.261 1282.3C922.771 1284.15 924.421 1286.03 927.401 1285.95C940.751 1285.62 954.741 1282.14 967.611 1278.95C1017.75 1266.63 1068.55 1241.18 1093.91 1193.95C1097.49 1187.18 1100.5 1180.13 1102.91 1172.86C1103.91 1169.98 1103.91 1164.86 1101.57 1162.59C1099.23 1160.32 1097.23 1162.97 1096.44 1165.29C1079.1 1216.12 1030.02 1245.53 981.041 1260.23C965.357 1264.93 949.298 1268.28 933.041 1270.23C931.22 1270.58 929.374 1270.77 927.521 1270.81C924.971 1270.67 924.711 1269.57 922.191 1267.72C905.671 1255.56 889.601 1242.79 874.191 1229.21C855.191 1212.41 837.971 1193.67 818.931 1176.92C803.711 1163.51 787.081 1154.14 767.371 1149.06C731.731 1139.88 693.021 1139.18 656.601 1143.45C645.961 1144.62 635.403 1146.46 624.991 1148.94C622.051 1149.67 618.061 1151.48 615.081 1150.53C611.541 1149.4 609.491 1145.85 610.981 1142.53C612.261 1139.7 614.691 1137.9 616.191 1135.26C618.731 1130.84 619.361 1125.1 620.501 1120.26C622.389 1111.76 624.885 1103.4 627.971 1095.26C638.261 1069.06 656.611 1047.12 679.971 1031.53C687.755 1026.39 695.919 1021.85 704.391 1017.95C707.621 1016.44 707.621 1009.54 706.631 1006.95C702.771 996.73 701.091 987.79 699.841 977.3C697.561 958.16 699.561 937.3 709.841 919.77C717.341 907 728.911 897.42 741.841 890.58L738.191 888.65C752.051 910.5 774.571 928.06 796.881 940.41C854.211 972.12 922.071 970.3 983.461 952.27C1010.46 944.34 1036.51 933.42 1061.58 920.71C1076.75 913.02 1091.58 904.65 1106.07 895.78C1111.78 892.29 1121.01 889.06 1122.07 881.78C1122.82 876.5 1123.16 871.16 1123.86 865.87L1121.24 871.11C1121.93 870.747 1122.7 870.539 1123.48 870.499C1124.26 870.46 1125.04 870.59 1125.77 870.88C1126.47 871.18 1127.46 873.22 1126.71 871.98C1127.18 872.76 1127.61 873.57 1128.01 874.39C1128.34 875.06 1129.6 878.11 1129.01 876.66C1131.36 883.097 1133.2 889.707 1134.51 896.43C1134.51 896.43 1134.65 897.08 1134.86 898.13C1135.07 899.18 1135.29 900.31 1135.49 901.4C1135.93 903.7 1136.33 906.01 1136.72 908.32C1137.53 913.213 1138.26 918.117 1138.89 923.03C1140.33 933.99 1141.42 944.99 1142.16 956.03C1145.51 1005.11 1144.64 1056.94 1130.99 1104.54C1124.99 1125.38 1115.88 1147.73 1098.58 1161.79C1095.95 1163.92 1095.5 1167.79 1095.96 1171.01C1096.29 1172.47 1098.1 1178.44 1100.7 1176.32Z" fill="#7A2525"/>
<path d="M698.611 1021.84C717.611 1013.55 739.271 1010.1 759.841 1009.97C763.381 1009.97 764.241 1006.51 762.661 1003.97C760.661 1000.62 756.241 999.238 752.571 999.258C731.091 999.388 708.131 1003.16 688.301 1011.82C680.931 1015.04 693.181 1024.26 698.611 1021.89V1021.84Z" fill="#7A2525"/>
<path d="M1118.38 1077.47C1125.88 1076.24 1134.58 1077.72 1143.2 1085.59C1166.2 1106.59 1244.07 1126.59 1258.64 1033.59C1273.21 940.591 1238.2 858.591 1189.2 888.591C1140.2 918.591 1182.7 860.431 1129.7 891.091" fill="#FCC9C9"/>
<path d="M1117.11 1084.21C1127.94 1082.67 1134.78 1088.82 1142.79 1094.84C1146.9 1097.87 1151.34 1100.42 1156.03 1102.46C1167.3 1107.58 1179.54 1110.18 1191.92 1110.07C1205.92 1109.93 1219.52 1105.32 1230.72 1096.92C1244.9 1086.17 1254.06 1069.69 1259.15 1052.92C1266.56 1028.49 1268.31 1001.68 1267.09 976.29C1266.02 953.94 1262.3 930.99 1252.96 910.5C1246.54 896.42 1236.67 881.69 1221.12 876.92C1214.37 874.908 1207.18 875.002 1200.49 877.19C1192.13 879.84 1185.3 885.4 1177.29 888.8C1175.1 889.775 1172.76 890.386 1170.38 890.61C1168.84 890.61 1169.31 890.53 1168.71 890.2C1167.46 889.53 1168.64 890.31 1167.94 889.53C1167.24 888.75 1167.1 888.05 1167.23 888.38C1166.91 887.6 1166.68 886.8 1166.42 886C1165.9 884.182 1165.23 882.41 1164.42 880.7C1157.74 867.56 1137.59 880.32 1129.57 884.92C1126.57 886.64 1124.08 890.56 1124.27 894.1C1124.43 897.25 1126.89 898.94 1129.78 897.28C1135.46 894.02 1143.44 889.15 1149.58 888.76C1151.66 888.62 1152.08 888.65 1153.28 889.44C1154.48 890.23 1153.1 888.96 1153.89 889.97C1154.2 890.36 1155.27 892.43 1154.71 891.16C1157.24 896.83 1157.71 904.07 1165.63 904.35C1179.8 904.84 1190.2 890.82 1204.05 889.35C1217.9 887.88 1228.8 897.35 1236.05 907.99C1246.91 923.99 1251.94 943.99 1254.54 962.99C1257.86 987.949 1257.3 1013.27 1252.88 1038.06C1250.07 1054.06 1244.67 1070.99 1232.62 1082.51C1223.87 1090.86 1212.28 1095.45 1200.28 1096.32C1187.43 1097.11 1174.6 1094.71 1162.91 1089.32C1158.11 1087.2 1153.58 1084.51 1149.41 1081.32C1145.41 1078.14 1141.8 1074.72 1136.94 1072.74C1131.45 1070.57 1125.48 1069.92 1119.66 1070.88C1114.12 1071.66 1109.43 1085.46 1117.12 1084.36L1117.11 1084.21Z" fill="#7A2525"/>
<path d="M1207.06 928.081C1183.7 937.791 1167.99 1048.08 1193 1066.63C1239.62 1101.19 1230.42 918.371 1207.06 928.081Z" fill="#FCC9C9"/>
<path d="M1206.31 923.732C1196.07 928.252 1191.01 941.452 1187.51 951.182C1182.09 966.182 1179.16 982.262 1177.51 998.122C1175.86 1013.98 1175.33 1030.53 1178.32 1046.28C1180.32 1056.86 1184.12 1067.82 1194.1 1073.28C1212.92 1083.51 1222.95 1059.72 1226.2 1045.28C1231.77 1020.59 1231.38 994.102 1228.58 969.082C1227.29 957.552 1225.51 945.612 1221.19 934.772C1218.72 928.572 1214.13 920.702 1206.33 923.772C1201.79 925.532 1202.01 934.772 1207.83 932.482C1206.67 932.932 1207.91 932.552 1208.26 932.482C1207.26 932.722 1208.18 932.482 1208.66 932.652C1207.52 932.242 1208.82 932.792 1209.08 932.962C1209.77 933.442 1209 932.752 1209.82 933.622C1211.54 935.585 1212.85 937.864 1213.7 940.332C1217.03 948.462 1218.53 957.402 1219.76 966.042C1222.98 988.652 1223.48 1012.18 1220.29 1034.83C1219.1 1043.26 1217.29 1052.14 1213.48 1059.35C1211.01 1063.97 1208.23 1067.25 1202.56 1066C1194.64 1064.25 1190.02 1056.51 1187.8 1049C1183.99 1036.1 1183.91 1022 1184.61 1008.71C1185.38 991.984 1188.14 975.407 1192.84 959.332C1195.42 950.722 1199.72 936.102 1207.84 932.522C1212.24 930.482 1212 921.212 1206.31 923.732Z" fill="#7A2525"/>
<path d="M1362.11 1009.18C1359.76 1005.88 1356.71 1003.14 1353.19 1001.14C1349.67 999.131 1345.76 997.914 1341.72 997.569C1341 997.509 1269.57 991.249 1211.86 972.689C1203.65 970.018 1195.57 966.934 1187.67 963.449C1182.79 982.217 1180.31 1001.53 1180.28 1020.92C1185.06 1022.74 1189.88 1024.45 1194.72 1026C1229.72 1037.24 1267.99 1044.29 1296.07 1048.42C1287.95 1059.55 1278.63 1069.76 1268.28 1078.86C1229.5 1113.23 1157.82 1138.08 1157.12 1138.32C1153.64 1139.51 1150.43 1141.37 1147.67 1143.8C1144.91 1146.23 1142.66 1149.19 1141.04 1152.49C1139.42 1155.79 1138.46 1159.38 1138.23 1163.05C1138 1166.72 1138.49 1170.4 1139.68 1173.88C1140.87 1177.36 1142.74 1180.57 1145.17 1183.33C1147.6 1186.09 1150.55 1188.34 1153.85 1189.96C1157.15 1191.58 1160.74 1192.54 1164.41 1192.77C1168.08 1193 1171.76 1192.51 1175.24 1191.32C1178.6 1190.17 1258.17 1162.67 1305.42 1120.79C1354.12 1077.65 1365.42 1036.79 1366.51 1032.25C1367.49 1028.31 1367.61 1024.21 1366.85 1020.23C1366.09 1016.25 1364.47 1012.48 1362.11 1009.18Z" fill="black"/>
<path d="M750.659 868.661C778.079 901.371 815.039 913.951 860.519 913.951C971.199 913.951 1096.33 816.831 1097.58 815.851L1097.78 815.701L1097.99 815.551C1127.45 795.341 1081.58 557.141 1078.54 556.551H1033.54L797.129 628.741L762.829 692.371L761.329 695.151L758.329 696.151C757.999 696.261 716.079 715.381 702.329 748.931C677.199 810.691 699.069 848.451 750.659 868.661Z" fill="#F8F58F"/>
<path d="M755.839 657.801C755.839 657.801 615.989 778.191 744.369 869.601Z" fill="#F8F58F"/>
<path d="M747.72 650.389C731.56 664.329 717.37 681.389 705.8 699.279C685.36 730.799 672.59 769.769 685.08 806.779C694.81 835.639 716.39 857.779 740.69 875.269C743.93 877.589 751 879.849 753.8 875.729C756.74 871.409 751.03 866.089 748.04 863.939C729.7 850.769 713.63 834.009 705.49 812.699C699.1 795.959 699.01 777.569 702.95 760.259C709.95 729.739 728.64 702.399 749.51 679.599C751.563 677.366 753.647 675.169 755.76 673.009C756.59 672.169 757.43 671.339 758.27 670.509C759.44 669.339 757.41 671.319 758.55 670.229L759.55 669.229C760.99 667.859 762.44 666.489 763.95 665.229C771.75 658.499 754.21 644.789 747.71 650.399L747.72 650.389Z" fill="#392000"/>
<path d="M787.662 568.441C780.612 552.511 771.122 542.721 762.172 544.031C747.962 546.121 740.492 575.371 745.482 609.371C750.472 643.371 766.032 669.231 780.242 667.151C794.452 665.071 801.922 635.811 796.932 601.811L771.202 605.591L787.662 568.441Z" fill="black"/>
<path d="M909.569 556.62C902.569 536.15 891.139 522.81 878.569 523.11C858.569 523.6 843.129 558.23 844.149 600.47C845.169 642.71 862.229 676.55 882.259 676.07C902.289 675.59 917.689 640.95 916.669 598.71L880.409 599.59L909.569 556.62Z" fill="black"/>
<path d="M862.998 473.089C863.188 472.729 863.408 472.369 863.618 472.019C864.618 470.369 866.968 468.799 863.528 472.019C864.53 470.854 865.468 469.636 866.338 468.369C866.888 467.709 867.568 467.079 868.078 466.369C865.928 469.249 867.298 467.119 868.158 466.369C869.018 465.619 869.708 465.119 870.398 464.439C872.398 462.439 868.698 465.309 870.948 463.989C871.848 463.459 872.728 462.929 873.648 462.439C875.358 461.519 872.738 462.439 875.278 461.759C879.101 460.518 883.234 460.624 886.988 462.059C896.158 465.379 902.698 472.399 907.428 480.699C907.908 481.539 908.348 482.389 908.798 483.239C909.028 483.689 910.108 486.149 909.198 484.029C909.768 485.359 910.318 486.709 910.818 488.079C911.317 489.437 911.748 490.818 912.108 492.219C913.758 499.069 921.488 497.079 925.458 493.719C930.678 489.299 934.598 481.249 932.928 474.329C928.538 456.189 914.498 438.519 895.928 434.139C875.648 429.379 856.358 447.639 847.448 464.139C844.968 468.719 841.768 478.139 847.738 481.629C853.548 484.979 860.638 477.569 863.038 473.139L862.998 473.089Z" fill="#392000"/>
<path d="M781.66 500.19C773.92 486.19 758.4 469.66 740.75 476.09C726.67 481.21 722.1 498.97 721.75 512.51C721.61 517.51 725.45 520.83 730.2 521.72C733.73 522.38 741.28 521.16 741.41 516.18C741.64 507.56 743.28 496.12 749.77 490.42C750.33 489.92 750.28 490.03 751.33 489.74C750.51 489.97 750.04 489.36 750.46 489.92C751.08 490.74 749.25 489.09 751.12 490.26C753.076 491.68 754.891 493.284 756.54 495.05C759.214 497.866 761.489 501.035 763.3 504.47C765.72 508.84 771.55 510.75 776.3 509.63C780.45 508.63 784.11 504.54 781.71 500.19H781.66Z" fill="#392000"/>
<path d="M864.45 891.161C886.96 902.961 916.76 899.871 939.6 891.411C941.287 890.732 942.772 889.634 943.915 888.219C945.058 886.805 945.82 885.123 946.13 883.331C946.52 880.981 945.58 876.651 942.13 877.931C920.87 885.801 892.99 889.201 871.94 878.171C866.46 875.301 859.04 888.341 864.44 891.171L864.45 891.161Z" fill="#392000"/>
<path d="M1015.44 840.581C1013.57 840.58 1011.71 840.317 1009.91 839.801L895.591 807.001C893.066 806.277 890.709 805.062 888.654 803.427C886.598 801.792 884.885 799.768 883.612 797.47C882.339 795.173 881.531 792.647 881.234 790.038C880.937 787.428 881.157 784.785 881.881 782.261C884.881 771.641 896.011 773.511 906.631 776.561L1021 801.351C1025.64 802.677 1029.64 805.636 1032.27 809.682C1034.9 813.728 1035.98 818.589 1035.31 823.367C1034.64 828.146 1032.26 832.52 1028.62 835.684C1024.97 838.847 1020.31 840.587 1015.48 840.581H1015.44Z" fill="white"/>
<path d="M1015.44 846.579C1013.01 846.586 1010.59 846.249 1008.25 845.579L893.931 812.74C890.649 811.797 887.585 810.217 884.914 808.09C882.243 805.963 880.017 803.331 878.363 800.343C876.709 797.356 875.66 794.072 875.275 790.679C874.89 787.287 875.178 783.851 876.121 780.569C878.171 773.439 883.371 769.08 890.781 768.29C896.421 767.69 902.681 769.16 908.091 770.71L1022.42 795.55H1022.61C1025.89 796.492 1028.96 798.072 1031.63 800.199C1034.3 802.326 1036.52 804.958 1038.18 807.946C1039.83 810.933 1040.88 814.217 1041.27 817.61C1041.65 821.002 1041.36 824.438 1040.42 827.72C1038.86 833.141 1035.57 837.909 1031.07 841.31C1026.57 844.71 1021.08 846.559 1015.44 846.579V846.579ZM893.501 780.13C893.02 780.127 892.539 780.15 892.061 780.199C889.471 780.479 888.361 781.4 887.651 783.87C886.626 787.438 887.06 791.267 888.859 794.516C890.657 797.764 893.672 800.164 897.241 801.189L1011.57 834C1015.14 835.024 1018.97 834.59 1022.22 832.791C1025.46 830.993 1027.87 827.978 1028.89 824.41C1029.91 820.871 1029.49 817.074 1027.73 813.841C1025.96 810.609 1023 808.201 1019.47 807.14L905.161 782.3H904.971C901.401 781.25 897.001 780.13 893.501 780.13V780.13Z" fill="#392000"/>
<path d="M1017.12 841.28C1028.56 841.28 1037.84 832.003 1037.84 820.56C1037.84 809.116 1028.56 799.84 1017.12 799.84C1005.68 799.84 996.398 809.116 996.398 820.56C996.398 832.003 1005.68 841.28 1017.12 841.28Z" fill="#392000"/>
<path d="M1115.7 753.13C1145.3 741.13 1177.26 735.31 1206.22 721.83C1235.18 708.35 1262.22 684.45 1267.12 652.88C1269.76 635.77 1265.6 618.26 1259.24 602.16C1231.78 532.62 1163.68 479.88 1155.4 405.57C1148.07 339.69 1199.07 272.66 1264.52 262.16C1284.21 259.01 1308.8 257.62 1316.79 239.35C1322.53 226.22 1315.79 210.87 1306.53 199.9C1297.27 188.93 1285.53 179.9 1278.63 167.35C1276.87 164.13 1275.44 160.46 1276.15 156.86C1277.7 149.13 1287.4 146.68 1295.26 146.04C1337.4 142.6 1380.91 145.78 1419.75 162.5C1458.59 179.22 1492.31 210.77 1505.03 251.1C1509.59 265.55 1511.36 281.45 1506.45 295.79C1500.32 313.69 1484.84 326.65 1469.14 337.2C1409.22 377.44 1337.74 395.79 1271.29 423.96C1265.48 426.42 1258.93 429.96 1257.94 436.14C1256.57 444.76 1266.49 450.41 1274.74 453.25C1312.56 466.286 1351.24 476.645 1390.51 484.25C1411.92 488.39 1436.28 493.57 1447.17 512.47C1458.06 531.37 1449.79 556.22 1434.85 572.01C1419.91 587.8 1399.61 597.11 1380.99 608.31C1375.25 611.75 1369.52 615.51 1365.4 620.79C1355.86 633.05 1357.13 650.68 1362.4 665.3C1367.67 679.92 1376.3 693.21 1380.61 708.12C1382.15 713.44 1383.1 719.22 1381.25 724.43C1379.58 729.17 1375.83 732.83 1372.05 736.14C1337.05 766.66 1290.46 780.47 1244.48 786.85C1198.5 793.23 1151.79 793.03 1105.88 799.85C1087.65 802.56 1062.02 840.08 1056 810.35C1050.43 783 1096.29 761 1115.7 753.13Z" fill="white"/>
<path d="M858.16 808.892C858.16 808.892 915.09 800.642 930.77 768.892C930.77 768.892 962.46 731.282 927.1 726.652C891.74 722.022 803.11 817.492 858.16 808.892Z" fill="#F8F58F"/>
<path d="M865.408 812.702C877.642 810.81 889.644 807.643 901.218 803.252C918.788 796.712 936.638 786.692 945.458 769.442C946.898 766.632 931.658 765.672 930.458 765.672C926.458 765.672 917.628 765.202 915.458 769.442C907.618 784.782 890.788 793.682 875.308 799.442C869.238 801.671 863.028 803.498 856.718 804.912C855.458 805.202 854.198 805.462 852.938 805.732C850.068 806.352 855.698 805.282 852.648 805.732C851.858 805.862 851.068 806.022 850.268 806.132C847.858 806.492 839.438 808.362 844.888 811.302C850.338 814.242 859.598 813.502 865.408 812.652V812.702Z" fill="#392000"/>
<path d="M818.46 729.181C818.46 729.181 679.46 754.641 684.46 663.441C698.03 568.611 813.3 661.441 813.3 661.441" fill="#F8F58F"/>
<path d="M811.809 723.121C810.709 723.321 809.599 723.491 808.499 723.661C807.399 723.831 806.299 723.981 805.189 724.131L802.739 724.441C804.829 724.181 801.989 724.521 801.299 724.601C791.845 725.649 782.341 726.173 772.829 726.171C760.229 726.171 750.539 725.481 737.989 722.811C736.649 722.521 735.299 722.221 733.989 721.881C735.839 722.351 732.239 721.391 731.589 721.191C730.023 720.731 728.466 720.238 726.919 719.711C726.069 719.421 721.789 717.771 724.079 718.711C721.381 717.588 718.741 716.33 716.169 714.941C715.739 714.701 714.489 713.941 716.429 715.091C715.759 714.691 715.079 714.281 714.429 713.861C713.119 713.021 711.839 712.121 710.589 711.191C712.329 712.491 709.109 709.941 708.589 709.501C707.529 708.501 706.499 707.571 705.519 706.501C706.519 707.501 704.219 704.941 703.929 704.571C702.946 703.345 702.025 702.07 701.169 700.751C698.11 695.704 695.958 690.16 694.809 684.371C692.039 669.751 694.239 653.791 702.459 641.181C705.321 636.853 709.205 633.296 713.767 630.825C718.33 628.353 723.431 627.044 728.619 627.011C730.912 626.897 733.211 627.017 735.479 627.371C736.959 627.571 738.479 627.811 739.899 628.101L741.899 628.511L743.529 628.891C742.529 628.621 742.529 628.631 743.609 628.891C746.379 629.631 749.109 630.481 751.809 631.421C753.463 632.001 755.096 632.608 756.709 633.241C758.539 633.951 757.039 633.371 756.709 633.241C757.789 633.691 758.869 634.151 759.939 634.621C763.139 636.028 766.296 637.528 769.409 639.121C771.189 640.021 772.959 640.961 774.719 641.911L776.199 642.731C776.599 642.951 779.779 644.731 777.509 643.451C782.949 646.581 788.269 649.921 793.509 653.451C797.249 655.971 800.916 658.574 804.509 661.261C805.509 662.021 806.509 662.831 807.509 663.561C807.379 663.471 805.319 661.821 806.879 663.081C810.129 665.691 815.569 668.971 819.959 667.461C824.049 666.061 822.379 661.871 819.739 659.741C804.579 647.573 788.111 637.132 770.639 628.611C748.319 617.741 713.149 604.751 691.579 624.061C679.779 634.631 674.579 652.371 675.129 667.781C675.619 682.191 680.449 696.281 690.129 707.131C709.779 729.251 740.699 736.501 769.079 738.291C787.801 739.528 806.604 738.497 825.079 735.221C829.639 734.391 826.879 729.371 824.849 727.501C821.499 724.411 816.349 722.281 811.769 723.111L811.809 723.121Z" fill="#392000"/>
<path d="M1229.17 1134.58C1206.91 1095.04 1164.64 1084.14 1142.85 1092.26C1127.04 1098.15 1124.26 1110.99 1124.4 1119.8L1125.4 1121.31C1106.4 1119.67 1089.4 1123.9 1076.3 1120.67C1061.86 1117.12 1048.75 1104.88 1010.08 1099.93C971.41 1094.98 938.081 1103.28 915.661 1132.25C889.201 1166.44 905.881 1213.16 909.411 1222.02C898.041 1244.34 893.211 1268.31 908.661 1281.42C933.081 1302.15 968.231 1268.73 986.661 1242.66C982.954 1250.81 980.7 1259.54 980.001 1268.47C976.001 1321.03 1014.7 1318.47 1028.59 1303.18C1041.39 1289.04 1059.74 1251.52 1070.87 1233.43L1081.7 1234.09C1094.03 1242.41 1113.13 1250.95 1140.05 1248C1170.43 1244.66 1186.84 1233.61 1194.66 1220.12L1196.08 1222.12C1212.78 1230.31 1266.8 1201.45 1229.17 1134.58Z" fill="black"/>
<path d="M1229.17 1134.58C1206.91 1095.04 1164.64 1084.14 1142.85 1092.26C1127.04 1098.15 1124.26 1110.99 1124.4 1119.8L1125.4 1121.31C1106.4 1119.67 1089.4 1123.9 1076.3 1120.67C1061.86 1117.12 1048.75 1104.88 1010.08 1099.93C971.41 1094.98 938.081 1103.28 915.661 1132.25C889.201 1166.44 905.881 1213.16 909.411 1222.02C898.041 1244.34 893.211 1268.31 908.661 1281.42C933.081 1302.15 968.231 1268.73 986.661 1242.66C982.954 1250.81 980.7 1259.54 980.001 1268.47C976.001 1321.03 1014.7 1318.47 1028.59 1303.18C1041.39 1289.04 1059.74 1251.52 1070.87 1233.43L1081.7 1234.09C1094.03 1242.41 1113.13 1250.95 1140.05 1248C1170.43 1244.66 1186.84 1233.61 1194.66 1220.12L1196.08 1222.12C1212.78 1230.31 1266.8 1201.45 1229.17 1134.58Z" fill="black"/>
<path d="M910.08 1223.51C910.08 1223.51 886.37 1170.17 915.71 1132.25C938.13 1103.25 971.46 1094.97 1010.13 1099.93C1048.8 1104.89 1061.91 1117.12 1076.35 1120.67C1102.63 1127.14 1144.05 1103.73 1187.41 1157.2C1203.15 1176.61 1220.32 1239.2 1140.08 1248C1113.16 1251 1094.08 1242.41 1081.73 1234.09" fill="black"/>
<path d="M916.658 1225C911.769 1213.47 908.878 1201.19 908.108 1188.69C906.418 1164.9 913.608 1142.33 931.368 1125.88C965.978 1093.81 1020.21 1100.25 1059.98 1118.33C1066.34 1121.22 1072.72 1124.33 1079.62 1125.69C1087.02 1127.17 1094.56 1126.89 1102.05 1126.49C1119.65 1125.49 1137.5 1124.77 1153.64 1133.13C1179.11 1146.32 1199.04 1174.74 1192.85 1204.33C1189.32 1221.22 1175.51 1232.61 1159.77 1238.03C1135.52 1246.37 1107.1 1246.49 1085.23 1231.91C1083.11 1230.5 1078.42 1227.71 1075.89 1229.73C1073.36 1231.75 1076.46 1235.11 1078.24 1236.3C1100.72 1251.3 1126.49 1256.2 1153.1 1251.65C1171.36 1248.52 1190.85 1241.02 1200.87 1224.42C1208.11 1212.42 1208.69 1197.94 1205.73 1184.56C1202.46 1169.74 1194.67 1157.85 1184.18 1147.07C1166.63 1129.07 1144.12 1117.56 1118.84 1116.2C1109.9 1115.72 1100.98 1116.47 1092.05 1116.87C1085.38 1117.17 1077.39 1117.14 1072.11 1115.27C1064.5 1112.57 1057.35 1108.67 1049.84 1105.69C1037.97 1101.05 1025.62 1097.77 1013.01 1095.92C987.308 1092.03 959.938 1092.52 936.518 1105.09C913.958 1117.2 898.118 1139.09 894.918 1164.59C892.648 1182.68 895.828 1201.79 902.208 1218.8C902.618 1219.89 903.028 1220.98 903.498 1222.04C904.898 1225.2 908.498 1227.51 911.818 1228.19C913.818 1228.6 918.098 1228.26 916.658 1225V1225Z" fill="black"/>
<path d="M1124.4 1119.8C1124.26 1110.99 1127.04 1098.15 1142.85 1092.26C1164.64 1084.14 1206.91 1095.04 1229.17 1134.58C1266.8 1201.45 1212.78 1230.31 1196.11 1222.14" fill="black"/>
<path d="M1134.37 1119.1C1134.37 1111.59 1136.57 1103.83 1142.8 1099.1C1144.68 1097.75 1146.75 1096.68 1148.95 1095.94C1149.27 1095.82 1150.65 1095.41 1148.95 1095.88C1149.78 1095.65 1150.62 1095.48 1151.46 1095.3C1151.46 1095.3 1154.24 1094.83 1152.77 1095.04C1151.3 1095.25 1154.27 1094.91 1154.18 1094.91C1155.18 1094.84 1156.08 1094.78 1157.03 1094.75C1159.34 1094.68 1156.14 1094.68 1158.3 1094.75C1165.63 1095.16 1172.82 1096.85 1179.56 1099.75C1188.07 1103.39 1195.89 1108.47 1202.68 1114.75C1225.83 1135.95 1246.42 1182.63 1220.14 1209.18C1216.45 1213.07 1211.88 1216.01 1206.82 1217.77C1206.66 1217.83 1204.58 1218.41 1206.12 1218C1207.66 1217.59 1205.12 1218.19 1204.85 1218.25C1204.01 1218.45 1202.26 1218.31 1205.12 1218.25C1204.55 1218.25 1203.99 1218.39 1203.42 1218.38C1201.33 1218.38 1205.95 1218.38 1203.92 1218.38C1201.89 1218.38 1204.02 1218.07 1204.32 1218.49C1204.18 1218.3 1203.17 1218.32 1202.92 1218.18C1205.23 1219.42 1203.49 1218.32 1202.92 1218.04C1200.64 1217.14 1198.19 1216.77 1195.75 1216.94C1193.31 1217.11 1190.94 1217.83 1188.81 1219.04C1185.32 1221.26 1185.57 1224.35 1189.31 1226.09C1202 1231.99 1219.05 1227 1229.96 1219.46C1236.68 1214.86 1242.2 1208.72 1246.07 1201.55C1249.93 1194.38 1252.03 1186.39 1252.18 1178.24C1252.85 1153.81 1239.46 1128.33 1222.58 1111.42C1207.18 1095.98 1185.82 1085.98 1163.97 1084.77C1152.43 1084.14 1140.14 1085.77 1130.07 1091.77C1119.64 1097.98 1114.37 1108.48 1114.43 1120.44C1114.43 1127.17 1134.43 1126.2 1134.38 1119.04L1134.37 1119.1Z" fill="black"/>
<path d="M1017.53 1146.38C1005.26 1146.72 977.599 1143.57 939.529 1180.64C915.949 1203.59 882.019 1258.74 908.739 1281.42C934.329 1303.14 971.739 1265.42 989.259 1238.96" fill="black"/>
<path d="M1016.62 1138.94C1001.38 1139.3 987.618 1140.94 973.618 1147.57C951.388 1158.07 932.718 1176.16 918.718 1196.15C906.308 1213.88 894.428 1236.03 895.148 1258.33C895.478 1268.57 898.438 1278.8 905.728 1286.33C909.179 1289.88 913.46 1292.52 918.184 1294C922.909 1295.48 927.928 1295.76 932.788 1294.82C945.338 1292.44 956.498 1284.33 965.788 1275.9C975.714 1266.76 984.504 1256.45 991.968 1245.21C993.858 1242.39 993.398 1237.8 992.058 1234.86C991.058 1232.78 988.578 1229.92 986.638 1232.86C975.008 1250.23 959.548 1268.23 940.138 1277.05C931.828 1280.82 922.138 1282.16 913.828 1277.62C907.758 1274.3 903.328 1268.5 902.828 1261.5C902.228 1252.5 905.578 1243.16 909.078 1234.98C913.337 1225.31 918.617 1216.13 924.828 1207.58C937.608 1189.58 954.268 1173.73 973.928 1163.49C988.288 1156.01 1002.64 1154.3 1018.49 1153.93C1023.49 1153.81 1022.1 1138.93 1016.67 1139.04L1016.62 1138.94Z" fill="black"/>
<path d="M1053.41 1183.2C1053.41 1183.2 984.541 1210.11 980.031 1268.47C976.031 1321.03 1014.73 1318.47 1028.62 1303.18C1043.77 1286.45 1066.7 1236.95 1076.22 1225.68" fill="black"/>
<path d="M1052.5 1175.75C1019.64 1188.66 987.701 1216.09 978.741 1251.17C973.511 1271.65 972.741 1306.82 995.511 1317.75C1002.43 1321.07 1010.74 1320.88 1017.85 1318.3C1026.23 1315.3 1031.74 1309.49 1036.85 1302.3C1045.63 1290 1052.85 1276.54 1060.09 1263.3C1065.9 1252.78 1071.21 1241.11 1078.9 1231.79C1081.9 1228.15 1077.9 1214.1 1073.57 1219.4C1067.73 1226.48 1063.51 1235.11 1059.08 1243.1C1052.84 1254.33 1046.74 1265.65 1040.08 1276.65C1031.74 1290.44 1022.57 1306.01 1004.29 1305.24C983.111 1304.35 981.831 1279.43 984.791 1263.6C988.851 1241.9 1003.71 1223.9 1020.68 1210.6C1028.05 1204.86 1035.91 1199.78 1044.17 1195.43C1046.73 1194.07 1049.34 1192.78 1051.98 1191.58C1052.73 1191.24 1053.48 1190.92 1054.23 1190.58C1055.35 1190.1 1054.11 1190.58 1054.33 1190.58C1059.53 1188.58 1056.72 1174.04 1052.51 1175.69L1052.5 1175.75Z" fill="black"/>
<path d="M1126.23 1125.92C1126.23 1125.92 1081.71 1109.25 1065.17 1126.75C1048.63 1144.25 1088.83 1120.45 1126.23 1125.92Z" fill="black"/>
<path d="M1142.82 1131.7C1142.82 1131.7 1095.32 1129.7 1085.03 1151.46C1074.74 1173.22 1105.57 1138.12 1142.82 1131.7Z" fill="black"/>
<path d="M1142.82 1131.7C1142.82 1131.7 1095.32 1129.7 1085.03 1151.46C1074.74 1173.22 1105.57 1138.12 1142.82 1131.7Z" fill="black"/>
<path d="M1229.17 1134.58C1206.91 1095.04 1164.64 1084.14 1142.85 1092.26C1127.04 1098.15 1124.26 1110.99 1124.4 1119.8L1125.4 1121.31C1106.4 1119.67 1089.4 1123.9 1076.3 1120.67C1061.86 1117.12 1048.75 1104.88 1010.08 1099.93C971.41 1094.98 938.081 1103.28 915.661 1132.25C889.201 1166.44 905.881 1213.16 909.411 1222.02C898.041 1244.34 893.211 1268.31 908.661 1281.42C933.081 1302.15 968.231 1268.73 986.661 1242.66C982.954 1250.81 980.7 1259.54 980.001 1268.47C976.001 1321.03 1014.7 1318.47 1028.59 1303.18C1041.39 1289.04 1059.74 1251.52 1070.87 1233.43L1081.7 1234.09C1094.03 1242.41 1113.13 1250.95 1140.05 1248C1170.43 1244.66 1186.84 1233.61 1194.66 1220.12L1196.08 1222.12C1212.78 1230.31 1266.8 1201.45 1229.17 1134.58Z" fill="white"/>
<path d="M910.08 1223.51C910.08 1223.51 886.37 1170.17 915.71 1132.25C938.13 1103.25 971.46 1094.97 1010.13 1099.93C1048.8 1104.89 1061.91 1117.12 1076.35 1120.67C1102.63 1127.14 1144.05 1103.73 1187.41 1157.2C1203.15 1176.61 1220.32 1239.2 1140.08 1248C1113.16 1251 1094.08 1242.41 1081.73 1234.09" fill="white"/>
<path d="M916.658 1225C911.769 1213.47 908.878 1201.19 908.108 1188.69C906.418 1164.9 913.608 1142.33 931.368 1125.88C965.978 1093.81 1020.21 1100.25 1059.98 1118.33C1066.34 1121.22 1072.72 1124.33 1079.62 1125.69C1087.02 1127.17 1094.56 1126.89 1102.05 1126.49C1119.65 1125.49 1137.5 1124.77 1153.64 1133.13C1179.11 1146.32 1199.04 1174.74 1192.85 1204.33C1189.32 1221.22 1175.51 1232.61 1159.77 1238.03C1135.52 1246.37 1107.1 1246.49 1085.23 1231.91C1083.11 1230.5 1078.42 1227.71 1075.89 1229.73C1073.36 1231.75 1076.46 1235.11 1078.24 1236.3C1100.72 1251.3 1126.49 1256.2 1153.1 1251.65C1171.36 1248.52 1190.85 1241.02 1200.87 1224.42C1208.11 1212.42 1208.69 1197.94 1205.73 1184.56C1202.46 1169.74 1194.67 1157.85 1184.18 1147.07C1166.63 1129.07 1144.12 1117.56 1118.84 1116.2C1109.9 1115.72 1100.98 1116.47 1092.05 1116.87C1085.38 1117.17 1077.39 1117.14 1072.11 1115.27C1064.5 1112.57 1057.35 1108.67 1049.84 1105.69C1037.97 1101.05 1025.62 1097.77 1013.01 1095.92C987.308 1092.03 959.938 1092.52 936.518 1105.09C913.958 1117.2 898.118 1139.09 894.918 1164.59C892.648 1182.68 895.828 1201.79 902.208 1218.8C902.618 1219.89 903.028 1220.98 903.498 1222.04C904.898 1225.2 908.498 1227.51 911.818 1228.19C913.818 1228.6 918.098 1228.26 916.658 1225V1225Z" fill="black"/>
<path d="M1134.37 1119.1C1134.37 1111.59 1136.57 1103.83 1142.8 1099.1C1144.68 1097.75 1146.75 1096.68 1148.95 1095.94C1149.27 1095.82 1150.65 1095.41 1148.95 1095.88C1149.78 1095.65 1150.62 1095.48 1151.46 1095.3C1151.46 1095.3 1154.24 1094.83 1152.77 1095.04C1151.3 1095.25 1154.27 1094.91 1154.18 1094.91C1155.18 1094.84 1156.08 1094.78 1157.03 1094.75C1159.34 1094.68 1156.14 1094.68 1158.3 1094.75C1165.63 1095.16 1172.82 1096.85 1179.56 1099.75C1188.07 1103.39 1195.89 1108.47 1202.68 1114.75C1225.83 1135.95 1246.42 1182.63 1220.14 1209.18C1216.45 1213.07 1211.88 1216.01 1206.82 1217.77C1206.66 1217.83 1204.58 1218.41 1206.12 1218C1207.66 1217.59 1205.12 1218.19 1204.85 1218.25C1204.01 1218.45 1202.26 1218.31 1205.12 1218.25C1204.55 1218.25 1203.99 1218.39 1203.42 1218.38C1201.33 1218.38 1205.95 1218.38 1203.92 1218.38C1201.89 1218.38 1204.02 1218.07 1204.32 1218.49C1204.18 1218.3 1203.17 1218.32 1202.92 1218.18C1205.23 1219.42 1203.49 1218.32 1202.92 1218.04C1200.64 1217.14 1198.19 1216.77 1195.75 1216.94C1193.31 1217.11 1190.94 1217.83 1188.81 1219.04C1185.32 1221.26 1185.57 1224.35 1189.31 1226.09C1202 1231.99 1219.05 1227 1229.96 1219.46C1236.68 1214.86 1242.2 1208.72 1246.07 1201.55C1249.93 1194.38 1252.03 1186.39 1252.18 1178.24C1252.85 1153.81 1239.46 1128.33 1222.58 1111.42C1207.18 1095.98 1185.82 1085.98 1163.97 1084.77C1152.43 1084.14 1140.14 1085.77 1130.07 1091.77C1119.64 1097.98 1114.37 1108.48 1114.43 1120.44C1114.43 1127.17 1134.43 1126.2 1134.38 1119.04L1134.37 1119.1Z" fill="black"/>
<path d="M1017.53 1146.38C1005.26 1146.72 977.599 1143.57 939.529 1180.64C915.949 1203.59 882.019 1258.74 908.739 1281.42C934.329 1303.14 971.739 1265.42 989.259 1238.96" fill="white"/>
<path d="M1016.62 1138.94C1001.38 1139.3 987.618 1140.94 973.618 1147.57C951.388 1158.07 932.718 1176.16 918.718 1196.15C906.308 1213.88 894.428 1236.03 895.148 1258.33C895.478 1268.57 898.438 1278.8 905.728 1286.33C909.179 1289.88 913.46 1292.52 918.184 1294C922.909 1295.48 927.928 1295.76 932.788 1294.82C945.338 1292.44 956.498 1284.33 965.788 1275.9C975.714 1266.76 984.504 1256.45 991.968 1245.21C993.858 1242.39 993.398 1237.8 992.058 1234.86C991.058 1232.78 988.578 1229.92 986.638 1232.86C975.008 1250.23 959.548 1268.23 940.138 1277.05C931.828 1280.82 922.138 1282.16 913.828 1277.62C907.758 1274.3 903.328 1268.5 902.828 1261.5C902.228 1252.5 905.578 1243.16 909.078 1234.98C913.337 1225.31 918.617 1216.13 924.828 1207.58C937.608 1189.58 954.268 1173.73 973.928 1163.49C988.288 1156.01 1002.64 1154.3 1018.49 1153.93C1023.49 1153.81 1022.1 1138.93 1016.67 1139.04L1016.62 1138.94Z" fill="black"/>
<path d="M1053.41 1183.2C1053.41 1183.2 984.541 1210.11 980.031 1268.47C976.031 1321.03 1014.73 1318.47 1028.62 1303.18C1043.77 1286.45 1066.7 1236.95 1076.22 1225.68" fill="white"/>
<path d="M1052.5 1175.75C1019.64 1188.66 987.701 1216.09 978.741 1251.17C973.511 1271.65 972.741 1306.82 995.511 1317.75C1002.43 1321.07 1010.74 1320.88 1017.85 1318.3C1026.23 1315.3 1031.74 1309.49 1036.85 1302.3C1045.63 1290 1052.85 1276.54 1060.09 1263.3C1065.9 1252.78 1071.21 1241.11 1078.9 1231.79C1081.9 1228.15 1077.9 1214.1 1073.57 1219.4C1067.73 1226.48 1063.51 1235.11 1059.08 1243.1C1052.84 1254.33 1046.74 1265.65 1040.08 1276.65C1031.74 1290.44 1022.57 1306.01 1004.29 1305.24C983.111 1304.35 981.831 1279.43 984.791 1263.6C988.851 1241.9 1003.71 1223.9 1020.68 1210.6C1028.05 1204.86 1035.91 1199.78 1044.17 1195.43C1046.73 1194.07 1049.34 1192.78 1051.98 1191.58C1052.73 1191.24 1053.48 1190.92 1054.23 1190.58C1055.35 1190.1 1054.11 1190.58 1054.33 1190.58C1059.53 1188.58 1056.72 1174.04 1052.51 1175.69L1052.5 1175.75Z" fill="black"/>
<path d="M1126.23 1125.92C1126.23 1125.92 1081.71 1109.25 1065.17 1126.75C1048.63 1144.25 1088.83 1120.45 1126.23 1125.92Z" fill="black"/>
<path d="M1142.82 1131.7C1142.82 1131.7 1095.32 1129.7 1085.03 1151.46C1074.74 1173.22 1105.57 1138.12 1142.82 1131.7Z" fill="black"/>
<path d="M1052.05 608.803C1092.6 604.691 1121.27 560.023 1116.1 509.032C1110.93 458.042 1073.87 420.038 1033.33 424.15C992.782 428.261 964.106 472.93 969.276 523.92C974.446 574.911 1011.51 612.914 1052.05 608.803Z" fill="#FCFBCF"/>
<path d="M1046.1 616.069C1004.44 616.069 967.591 576.589 962.321 524.599C956.771 469.849 988.311 421.649 1032.63 417.159C1076.97 412.659 1117.53 453.549 1123.08 508.299C1125.74 534.529 1120.07 560.079 1107.12 580.249C1093.85 600.929 1074.54 613.529 1052.76 615.739C1050.53 615.969 1048.3 616.079 1046.09 616.079L1046.1 616.069ZM1039.35 430.819C1037.59 430.819 1035.82 430.909 1034.04 431.089C997.401 434.809 971.471 476.119 976.241 523.189C980.781 567.969 1011.51 602.079 1046.05 602.079C1047.81 602.079 1049.58 601.989 1051.36 601.809C1068.8 600.039 1084.43 589.699 1095.35 572.689C1106.6 555.169 1111.5 532.809 1109.16 509.709C1104.62 464.929 1073.89 430.819 1039.35 430.819Z" fill="black"/>
<path d="M1089.77 489.99C1108.25 440.78 1121.68 376.84 1084.85 332.29C1061.12 303.59 1024.97 289.7 989.061 283.95C980.071 282.51 970.801 281.51 961.691 281.52C956.561 281.52 942.941 282.81 942.941 290.31C942.941 297.81 956.961 299.1 961.691 299.1C963.261 299.1 964.841 299.2 966.411 299.27C969.441 299.4 960.701 298.86 962.911 299.05C963.321 299.09 963.731 299.1 964.141 299.14C965.221 299.23 966.301 299.31 967.381 299.41C969.731 299.63 972.081 299.9 974.421 300.22C977.281 300.6 980.141 301.06 982.991 301.57C983.701 301.7 984.411 301.85 985.131 301.97C978.231 300.84 982.011 301.35 983.581 301.68C985.281 302.04 986.971 302.42 988.661 302.82C992.171 303.66 995.651 304.61 999.091 305.67C1000.86 306.21 1002.61 306.8 1004.36 307.39C1007.43 308.42 1004.25 307.36 1003.65 307.12C1004.68 307.53 1005.72 307.9 1006.75 308.3C1010.4 309.74 1014 311.33 1017.52 313.07C1019.42 314.01 1021.3 315 1023.15 316.03C1023.9 316.45 1024.64 316.88 1025.38 317.31C1028.22 318.91 1022.7 315.52 1026.32 317.89C1033.66 322.69 1040.33 328.1 1046.44 334.39C1048.35 336.36 1045.8 333.56 1046.88 334.85C1047.62 335.74 1048.4 336.61 1049.13 337.51C1050.62 339.34 1052.05 341.23 1053.39 343.17C1056.12 347.1 1058.55 351.24 1060.65 355.54C1062.9 360.14 1064.72 364.91 1066.27 369.78C1066.43 370.3 1066.59 370.83 1066.74 371.35C1066.16 369.32 1066.89 371.99 1066.95 372.22C1067.22 373.32 1067.5 374.41 1067.74 375.51C1068.41 378.51 1068.96 381.53 1069.4 384.57C1074.29 418.67 1065.53 453.56 1053.6 485.31C1050.88 492.56 1061.34 495.53 1066.7 496.12C1071.45 496.64 1076.55 496.66 1081.15 495.23C1083.92 494.37 1088.63 492.99 1089.77 489.98V489.99Z" fill="black"/>
<path d="M1067.45 563.699C1088.56 561.559 1103.48 538.235 1100.77 511.602C1098.07 484.969 1078.78 465.114 1057.67 467.254C1036.57 469.394 1021.65 492.719 1024.35 519.352C1027.05 545.984 1046.35 565.839 1067.45 563.699Z" fill="#313131"/>
<path d="M1060.8 481.07C1073.38 481.07 1085.07 495.39 1086.85 512.99C1087.82 522.6 1085.78 532.18 1081.25 539.27C1078.97 542.84 1073.96 548.95 1066.04 549.75C1065.47 549.81 1064.9 549.84 1064.33 549.84C1051.75 549.84 1040.06 535.52 1038.27 517.92C1037.3 508.31 1039.34 498.73 1043.87 491.64C1046.15 488.07 1051.16 481.96 1059.08 481.16C1059.65 481.1 1060.22 481.07 1060.79 481.07H1060.8ZM1060.79 467.07C1059.76 467.07 1058.72 467.12 1057.67 467.23C1036.57 469.37 1021.65 492.7 1024.35 519.33C1026.92 544.65 1044.48 563.84 1064.33 563.84C1065.36 563.84 1066.4 563.79 1067.45 563.68C1088.55 561.54 1103.47 538.21 1100.77 511.58C1098.2 486.26 1080.64 467.07 1060.79 467.07V467.07Z" fill="black"/>
</svg>
